<?xml version="1.0" encoding="UTF-8"?>
<svg width="21px" height="20px" viewBox="0 0 21 20" version="1.1" xmlns="http://www.w3.org/2000/svg" xmlns:xlink="http://www.w3.org/1999/xlink">
    <!-- Generator: Sketch 44.1 (41455) - http://www.bohemiancoding.com/sketch -->
    <title>Facebook Copy</title>
    <desc>Created with Sketch.</desc>
    <defs></defs>
    <g id="Page-1" stroke="none" stroke-width="1" fill="none" fill-rule="evenodd">
        <g id="Office" transform="translate(-1238.000000, -1246.000000)" fill="#5E5E5E">
            <path d="M1259,1264.89573 C1259,1265.50534 1258.48116,1266 1257.84106,1266 L1252.48966,1266 L1252.48966,1258.25485 L1255.21942,1258.25485 L1255.62842,1255.23676 L1252.48966,1255.23676 L1252.48966,1253.30933 C1252.48966,1252.4355 1252.74479,1251.84005 1254.06047,1251.84005 L1255.73882,1251.83951 L1255.73882,1249.13957 C1255.44823,1249.10307 1254.45232,1249.02081 1253.29337,1249.02081 C1250.87366,1249.02081 1249.21705,1250.42744 1249.21705,1253.01079 L1249.21705,1255.23676 L1246.48043,1255.23676 L1246.48043,1258.25485 L1249.21705,1258.25485 L1249.21705,1266 L1239.15894,1266 C1238.51884,1266 1238,1265.50534 1238,1264.89573 L1238,1247.10427 C1238,1246.49412 1238.51884,1246 1239.15894,1246 L1257.84106,1246 C1258.48116,1246 1259,1246.49412 1259,1247.10427 L1259,1264.89573" id="Facebook-Copy"></path>
        </g>
    </g>
</svg>