<?xml version="1.0" encoding="UTF-8"?>
<svg width="21px" height="20px" viewBox="0 0 21 20" version="1.1" xmlns="http://www.w3.org/2000/svg" xmlns:xlink="http://www.w3.org/1999/xlink">
    <!-- Generator: Sketch 44.1 (41455) - http://www.bohemiancoding.com/sketch -->
    <title>Instagram Copy</title>
    <desc>Created with Sketch.</desc>
    <defs></defs>
    <g id="Page-1" stroke="none" stroke-width="1" fill="none" fill-rule="evenodd">
        <g id="Office" transform="translate(-1289.000000, -1246.000000)" fill="#5E5E5E">
            <path d="M1307.5038,1246 L1291.4962,1246 C1290.1175,1246 1289,1247.06156 1289,1248.37187 L1289,1263.62813 C1289,1264.93789 1290.1175,1266 1291.4962,1266 L1307.5038,1266 C1308.8825,1266 1310,1264.93789 1310,1263.62813 L1310,1248.37187 C1310,1247.06156 1308.8825,1246 1307.5038,1246 L1307.5038,1246 Z M1304.09402,1249.12468 C1304.09402,1248.77991 1304.38786,1248.50007 1304.74986,1248.50007 L1306.71852,1248.50007 C1307.08109,1248.50007 1307.37493,1248.77991 1307.37493,1249.12468 L1307.37493,1251.00014 C1307.37493,1251.3449 1307.08109,1251.62474 1306.71852,1251.62474 L1304.74986,1251.62474 C1304.38786,1251.62474 1304.09402,1251.3449 1304.09402,1251.00014 L1304.09402,1249.12468 L1304.09402,1249.12468 Z M1299.52434,1252.18607 C1301.75477,1252.18607 1303.56305,1253.90443 1303.56305,1256.02318 C1303.56305,1258.14249 1301.75477,1259.8603 1299.52434,1259.8603 C1297.29449,1259.8603 1295.48621,1258.14249 1295.48621,1256.02318 C1295.48621,1253.90443 1297.29449,1252.18607 1299.52434,1252.18607 L1299.52434,1252.18607 Z M1308.03134,1263.49993 C1308.03134,1263.84469 1307.7375,1264.12509 1307.37493,1264.12509 L1291.62507,1264.12509 C1291.2625,1264.12509 1290.96866,1263.84469 1290.96866,1263.49993 L1290.96866,1254.12481 L1293.59373,1254.12481 C1293.25178,1254.5934 1293.13608,1255.46786 1293.13608,1256.02318 C1293.13608,1259.36988 1296.00229,1262.09306 1299.52434,1262.09306 C1303.04697,1262.09306 1305.91318,1259.36988 1305.91318,1256.02318 C1305.91318,1255.46786 1305.83013,1254.60704 1305.40627,1254.12481 L1308.03134,1254.12481 L1308.03134,1263.49993 L1308.03134,1263.49993 Z" id="Instagram-Copy"></path>
        </g>
    </g>
</svg>