<?xml version="1.0" encoding="UTF-8"?>
<svg width="20px" height="10px" viewBox="0 0 20 10" version="1.1" xmlns="http://www.w3.org/2000/svg" xmlns:xlink="http://www.w3.org/1999/xlink">
    <!-- Generator: Sketch 44.1 (41455) - http://www.bohemiancoding.com/sketch -->
    <title>ic_link_black_24px</title>
    <desc>Created with Sketch.</desc>
    <defs></defs>
    <g id="Page-1" stroke="none" stroke-width="1" fill="none" fill-rule="evenodd">
        <g id="News" transform="translate(-602.000000, -772.000000)">
            <g id="ic_link_black_24px" transform="translate(601.000000, 766.000000)">
                <polygon id="Shape" points="0 0 22 0 22 22 0 22"></polygon>
                <path d="M3.575,11 C3.575,9.4325 4.84916667,8.15833333 6.41666667,8.15833333 L10.0833333,8.15833333 L10.0833333,6.41666667 L6.41666667,6.41666667 C3.88666667,6.41666667 1.83333333,8.47 1.83333333,11 C1.83333333,13.53 3.88666667,15.5833333 6.41666667,15.5833333 L10.0833333,15.5833333 L10.0833333,13.8416667 L6.41666667,13.8416667 C4.84916667,13.8416667 3.575,12.5675 3.575,11 Z M7.33333333,11.9166667 L14.6666667,11.9166667 L14.6666667,10.0833333 L7.33333333,10.0833333 L7.33333333,11.9166667 Z M15.5833333,6.41666667 L11.9166667,6.41666667 L11.9166667,8.15833333 L15.5833333,8.15833333 C17.1508333,8.15833333 18.425,9.4325 18.425,11 C18.425,12.5675 17.1508333,13.8416667 15.5833333,13.8416667 L11.9166667,13.8416667 L11.9166667,15.5833333 L15.5833333,15.5833333 C18.1133333,15.5833333 20.1666667,13.53 20.1666667,11 C20.1666667,8.47 18.1133333,6.41666667 15.5833333,6.41666667 Z" id="Shape" fill="#5E5E5E" fill-rule="nonzero"></path>
            </g>
        </g>
    </g>
</svg>