<?xml version="1.0" encoding="UTF-8"?>
<svg width="154px" height="154px" viewBox="0 0 154 154" version="1.1" xmlns="http://www.w3.org/2000/svg" xmlns:xlink="http://www.w3.org/1999/xlink">
    <!-- Generator: Sketch 44.1 (41455) - http://www.bohemiancoding.com/sketch -->
    <title>Shape Copy 5</title>
    <desc>Created with Sketch.</desc>
    <defs></defs>
    <g id="Page-1" stroke="none" stroke-width="1" fill="none" fill-rule="evenodd">
        <g id="Parliament-Thumbs-Mouseover" transform="translate(-393.000000, -1249.000000)" fill-rule="nonzero" fill="#FFFFFF">
            <path d="M415,1348 L393,1348 L393,1403 L448,1403 L448,1381 L415,1381 L415,1348 Z M393,1304 L415,1304 L415,1271 L448,1271 L448,1249 L393,1249 L393,1304 Z M525,1381 L492,1381 L492,1403 L547,1403 L547,1348 L525,1348 L525,1381 Z M492,1249 L492,1271 L525,1271 L525,1304 L547,1304 L547,1249 L492,1249 Z" id="Shape-Copy-5"></path>
        </g>
    </g>
</svg>