<?xml version="1.0" encoding="UTF-8"?>
<svg width="24px" height="24px" viewBox="0 0 24 24" version="1.1" xmlns="http://www.w3.org/2000/svg" xmlns:xlink="http://www.w3.org/1999/xlink">
  <!-- Generator: Sketch 44.1 (41455) - http://www.bohemiancoding.com/sketch -->
  <title>Shape Copy 4</title>
  <desc>Created with Sketch.</desc>
  <defs></defs>
  <g id="Page-1" stroke="#5E5E5E" stroke-width="1" fill="none" fill-rule="evenodd">
    <g id="Parliament-Thumbs" transform="translate(-1286.000000, -288.000000)" fill-rule="nonzero" fill="#ffffff">
      <path
        d="M1289.42857,303.428571 L1286,303.428571 L1286,312 L1294.57143,312 L1294.57143,308.571429 L1289.42857,308.571429 L1289.42857,303.428571 Z M1286,296.571429 L1289.42857,296.571429 L1289.42857,291.428571 L1294.57143,291.428571 L1294.57143,288 L1286,288 L1286,296.571429 Z M1306.57143,308.571429 L1301.42857,308.571429 L1301.42857,312 L1310,312 L1310,303.428571 L1306.57143,303.428571 L1306.57143,308.571429 Z M1301.42857,288 L1301.42857,291.428571 L1306.57143,291.428571 L1306.57143,296.571429 L1310,296.571429 L1310,288 L1301.42857,288 Z"
        id="Shape-Copy-4"></path>
    </g>
  </g>
</svg>